<mxfile host="app.diagrams.net" modified="2023-05-29T15:26:03.523Z" agent="Mozilla/5.0 (Windows NT 10.0; Win64; x64) AppleWebKit/537.36 (KHTML, like Gecko) Chrome/113.0.0.0 Safari/537.36 Edg/113.0.1774.50" etag="t9s4wbWkWEsUYdZ1Hl1c" version="21.3.3" type="device">
  <diagram name="Page-1" id="6Xgm0r6tjDEaEimV8h0R">
    <mxGraphModel dx="1322" dy="1913" grid="1" gridSize="10" guides="1" tooltips="1" connect="1" arrows="1" fold="1" page="1" pageScale="1" pageWidth="827" pageHeight="1169" math="0" shadow="0">
      <root>
        <mxCell id="0" />
        <mxCell id="1" parent="0" />
        <mxCell id="jm8aYf2_qS2qIBeLgn5X-34" style="edgeStyle=orthogonalEdgeStyle;rounded=0;orthogonalLoop=1;jettySize=auto;html=1;exitX=0.75;exitY=1;exitDx=0;exitDy=0;endArrow=none;endFill=0;fillColor=#a20025;strokeColor=#6F0000;" edge="1" parent="1" source="jm8aYf2_qS2qIBeLgn5X-1" target="jm8aYf2_qS2qIBeLgn5X-29">
          <mxGeometry relative="1" as="geometry" />
        </mxCell>
        <mxCell id="jm8aYf2_qS2qIBeLgn5X-35" style="edgeStyle=orthogonalEdgeStyle;rounded=0;orthogonalLoop=1;jettySize=auto;html=1;exitX=0.5;exitY=1;exitDx=0;exitDy=0;endArrow=none;endFill=0;fillColor=#0050ef;strokeColor=#001DBC;" edge="1" parent="1" source="jm8aYf2_qS2qIBeLgn5X-1" target="jm8aYf2_qS2qIBeLgn5X-26">
          <mxGeometry relative="1" as="geometry" />
        </mxCell>
        <mxCell id="jm8aYf2_qS2qIBeLgn5X-36" style="edgeStyle=orthogonalEdgeStyle;rounded=0;orthogonalLoop=1;jettySize=auto;html=1;exitX=0.25;exitY=1;exitDx=0;exitDy=0;endArrow=none;endFill=0;fillColor=#60a917;strokeColor=#2D7600;" edge="1" parent="1" source="jm8aYf2_qS2qIBeLgn5X-1" target="jm8aYf2_qS2qIBeLgn5X-23">
          <mxGeometry relative="1" as="geometry" />
        </mxCell>
        <mxCell id="jm8aYf2_qS2qIBeLgn5X-1" value="&lt;p style=&quot;margin:0px;margin-top:6px;text-align:center;&quot;&gt;&lt;b&gt;Core&lt;/b&gt;&lt;/p&gt;&lt;hr&gt;&lt;p style=&quot;margin:0px;margin-left:8px;&quot;&gt;&lt;br&gt;&lt;/p&gt;" style="align=left;overflow=fill;html=1;dropTarget=0;whiteSpace=wrap;" vertex="1" parent="1">
          <mxGeometry x="740" y="70" width="180" height="90" as="geometry" />
        </mxCell>
        <mxCell id="jm8aYf2_qS2qIBeLgn5X-2" value="" style="shape=component;jettyWidth=8;jettyHeight=4;" vertex="1" parent="jm8aYf2_qS2qIBeLgn5X-1">
          <mxGeometry x="1" width="20" height="20" relative="1" as="geometry">
            <mxPoint x="-24" y="4" as="offset" />
          </mxGeometry>
        </mxCell>
        <mxCell id="jm8aYf2_qS2qIBeLgn5X-44" style="edgeStyle=orthogonalEdgeStyle;rounded=0;orthogonalLoop=1;jettySize=auto;html=1;exitX=0.75;exitY=0;exitDx=0;exitDy=0;endArrow=halfCircle;endFill=0;fillColor=#60a917;strokeColor=#2D7600;" edge="1" parent="1" source="jm8aYf2_qS2qIBeLgn5X-5" target="jm8aYf2_qS2qIBeLgn5X-23">
          <mxGeometry relative="1" as="geometry">
            <Array as="points">
              <mxPoint x="495" y="290" />
              <mxPoint x="785" y="290" />
            </Array>
          </mxGeometry>
        </mxCell>
        <mxCell id="jm8aYf2_qS2qIBeLgn5X-45" style="edgeStyle=orthogonalEdgeStyle;rounded=0;orthogonalLoop=1;jettySize=auto;html=1;exitX=0.5;exitY=0;exitDx=0;exitDy=0;endArrow=halfCircle;endFill=0;fillColor=#0050ef;strokeColor=#001DBC;" edge="1" parent="1" source="jm8aYf2_qS2qIBeLgn5X-5" target="jm8aYf2_qS2qIBeLgn5X-26">
          <mxGeometry relative="1" as="geometry" />
        </mxCell>
        <mxCell id="jm8aYf2_qS2qIBeLgn5X-71" style="edgeStyle=orthogonalEdgeStyle;rounded=0;orthogonalLoop=1;jettySize=auto;html=1;exitX=0.25;exitY=0;exitDx=0;exitDy=0;endArrow=halfCircle;endFill=0;fillColor=#a0522d;strokeColor=#6D1F00;" edge="1" parent="1" source="jm8aYf2_qS2qIBeLgn5X-5" target="jm8aYf2_qS2qIBeLgn5X-48">
          <mxGeometry relative="1" as="geometry">
            <Array as="points">
              <mxPoint x="405" y="115" />
            </Array>
          </mxGeometry>
        </mxCell>
        <mxCell id="jm8aYf2_qS2qIBeLgn5X-5" value="&lt;p style=&quot;margin:0px;margin-top:6px;text-align:center;&quot;&gt;&lt;b&gt;Bullet&lt;/b&gt;&lt;/p&gt;&lt;hr&gt;&lt;p style=&quot;margin:0px;margin-left:8px;&quot;&gt;&lt;br&gt;&lt;/p&gt;" style="align=left;overflow=fill;html=1;dropTarget=0;whiteSpace=wrap;" vertex="1" parent="1">
          <mxGeometry x="360" y="320" width="180" height="90" as="geometry" />
        </mxCell>
        <mxCell id="jm8aYf2_qS2qIBeLgn5X-6" value="" style="shape=component;jettyWidth=8;jettyHeight=4;" vertex="1" parent="jm8aYf2_qS2qIBeLgn5X-5">
          <mxGeometry x="1" width="20" height="20" relative="1" as="geometry">
            <mxPoint x="-24" y="4" as="offset" />
          </mxGeometry>
        </mxCell>
        <mxCell id="jm8aYf2_qS2qIBeLgn5X-40" style="edgeStyle=orthogonalEdgeStyle;rounded=0;orthogonalLoop=1;jettySize=auto;html=1;exitX=0.75;exitY=0;exitDx=0;exitDy=0;endArrow=halfCircle;endFill=0;jumpStyle=none;fillColor=#60a917;strokeColor=#2D7600;" edge="1" parent="1" source="jm8aYf2_qS2qIBeLgn5X-7" target="jm8aYf2_qS2qIBeLgn5X-23">
          <mxGeometry relative="1" as="geometry">
            <Array as="points">
              <mxPoint x="755" y="290" />
              <mxPoint x="785" y="290" />
            </Array>
          </mxGeometry>
        </mxCell>
        <mxCell id="jm8aYf2_qS2qIBeLgn5X-7" value="&lt;p style=&quot;margin:0px;margin-top:6px;text-align:center;&quot;&gt;&lt;b&gt;Player&lt;/b&gt;&lt;/p&gt;&lt;hr&gt;&lt;p style=&quot;margin:0px;margin-left:8px;&quot;&gt;&lt;br&gt;&lt;/p&gt;" style="align=left;overflow=fill;html=1;dropTarget=0;whiteSpace=wrap;" vertex="1" parent="1">
          <mxGeometry x="620" y="320" width="180" height="90" as="geometry" />
        </mxCell>
        <mxCell id="jm8aYf2_qS2qIBeLgn5X-8" value="" style="shape=component;jettyWidth=8;jettyHeight=4;" vertex="1" parent="jm8aYf2_qS2qIBeLgn5X-7">
          <mxGeometry x="1" width="20" height="20" relative="1" as="geometry">
            <mxPoint x="-24" y="4" as="offset" />
          </mxGeometry>
        </mxCell>
        <mxCell id="jm8aYf2_qS2qIBeLgn5X-62" style="edgeStyle=orthogonalEdgeStyle;rounded=0;orthogonalLoop=1;jettySize=auto;html=1;exitX=0.5;exitY=0;exitDx=0;exitDy=0;entryX=0.5;entryY=1;entryDx=0;entryDy=0;endArrow=none;endFill=0;dashed=1;" edge="1" parent="1" source="jm8aYf2_qS2qIBeLgn5X-9" target="jm8aYf2_qS2qIBeLgn5X-13">
          <mxGeometry relative="1" as="geometry" />
        </mxCell>
        <mxCell id="jm8aYf2_qS2qIBeLgn5X-63" style="edgeStyle=orthogonalEdgeStyle;rounded=0;orthogonalLoop=1;jettySize=auto;html=1;entryX=0.5;entryY=1;entryDx=0;entryDy=0;dashed=1;endArrow=none;endFill=0;" edge="1" parent="1" source="jm8aYf2_qS2qIBeLgn5X-9" target="jm8aYf2_qS2qIBeLgn5X-11">
          <mxGeometry relative="1" as="geometry" />
        </mxCell>
        <mxCell id="jm8aYf2_qS2qIBeLgn5X-64" style="edgeStyle=orthogonalEdgeStyle;rounded=0;orthogonalLoop=1;jettySize=auto;html=1;entryX=0.473;entryY=0.985;entryDx=0;entryDy=0;entryPerimeter=0;endArrow=none;endFill=0;dashed=1;" edge="1" parent="1" source="jm8aYf2_qS2qIBeLgn5X-9" target="jm8aYf2_qS2qIBeLgn5X-7">
          <mxGeometry relative="1" as="geometry" />
        </mxCell>
        <mxCell id="jm8aYf2_qS2qIBeLgn5X-65" style="edgeStyle=orthogonalEdgeStyle;rounded=0;orthogonalLoop=1;jettySize=auto;html=1;entryX=0.5;entryY=1;entryDx=0;entryDy=0;exitX=0.5;exitY=0;exitDx=0;exitDy=0;dashed=1;endArrow=none;endFill=0;" edge="1" parent="1" source="jm8aYf2_qS2qIBeLgn5X-9" target="jm8aYf2_qS2qIBeLgn5X-5">
          <mxGeometry relative="1" as="geometry" />
        </mxCell>
        <mxCell id="jm8aYf2_qS2qIBeLgn5X-68" style="edgeStyle=orthogonalEdgeStyle;rounded=0;orthogonalLoop=1;jettySize=auto;html=1;entryX=1;entryY=0.75;entryDx=0;entryDy=0;endArrow=none;endFill=0;dashed=1;" edge="1" parent="1" source="jm8aYf2_qS2qIBeLgn5X-9" target="jm8aYf2_qS2qIBeLgn5X-1">
          <mxGeometry relative="1" as="geometry">
            <Array as="points">
              <mxPoint x="1380" y="605" />
              <mxPoint x="1380" y="210" />
              <mxPoint x="1060" y="210" />
              <mxPoint x="1060" y="138" />
            </Array>
          </mxGeometry>
        </mxCell>
        <mxCell id="jm8aYf2_qS2qIBeLgn5X-69" style="edgeStyle=orthogonalEdgeStyle;rounded=0;orthogonalLoop=1;jettySize=auto;html=1;exitX=1;exitY=0.5;exitDx=0;exitDy=0;entryX=0.5;entryY=1;entryDx=0;entryDy=0;dashed=1;endArrow=none;endFill=0;" edge="1" parent="1" source="jm8aYf2_qS2qIBeLgn5X-9" target="jm8aYf2_qS2qIBeLgn5X-15">
          <mxGeometry relative="1" as="geometry">
            <Array as="points">
              <mxPoint x="1380" y="605" />
              <mxPoint x="1380" y="210" />
              <mxPoint x="1230" y="210" />
            </Array>
          </mxGeometry>
        </mxCell>
        <mxCell id="jm8aYf2_qS2qIBeLgn5X-9" value="&lt;p style=&quot;margin:0px;margin-top:6px;text-align:center;&quot;&gt;&lt;b&gt;Common&lt;/b&gt;&lt;/p&gt;&lt;hr&gt;&lt;p style=&quot;margin:0px;margin-left:8px;&quot;&gt;&lt;br&gt;&lt;/p&gt;" style="align=left;overflow=fill;html=1;dropTarget=0;whiteSpace=wrap;" vertex="1" parent="1">
          <mxGeometry x="740" y="560" width="180" height="90" as="geometry" />
        </mxCell>
        <mxCell id="jm8aYf2_qS2qIBeLgn5X-10" value="" style="shape=component;jettyWidth=8;jettyHeight=4;" vertex="1" parent="jm8aYf2_qS2qIBeLgn5X-9">
          <mxGeometry x="1" width="20" height="20" relative="1" as="geometry">
            <mxPoint x="-24" y="4" as="offset" />
          </mxGeometry>
        </mxCell>
        <mxCell id="jm8aYf2_qS2qIBeLgn5X-41" style="edgeStyle=orthogonalEdgeStyle;rounded=0;orthogonalLoop=1;jettySize=auto;html=1;exitX=0.25;exitY=0;exitDx=0;exitDy=0;endArrow=halfCircle;endFill=0;fillColor=#60a917;strokeColor=#2D7600;" edge="1" parent="1" source="jm8aYf2_qS2qIBeLgn5X-11" target="jm8aYf2_qS2qIBeLgn5X-23">
          <mxGeometry relative="1" as="geometry">
            <Array as="points">
              <mxPoint x="925" y="290" />
              <mxPoint x="785" y="290" />
            </Array>
          </mxGeometry>
        </mxCell>
        <mxCell id="jm8aYf2_qS2qIBeLgn5X-42" style="edgeStyle=orthogonalEdgeStyle;rounded=0;orthogonalLoop=1;jettySize=auto;html=1;exitX=0.5;exitY=0;exitDx=0;exitDy=0;endArrow=halfCircle;endFill=0;fillColor=#0050ef;strokeColor=#001DBC;" edge="1" parent="1" source="jm8aYf2_qS2qIBeLgn5X-11" target="jm8aYf2_qS2qIBeLgn5X-26">
          <mxGeometry relative="1" as="geometry" />
        </mxCell>
        <mxCell id="jm8aYf2_qS2qIBeLgn5X-11" value="&lt;p style=&quot;margin:0px;margin-top:6px;text-align:center;&quot;&gt;&lt;b&gt;Enemy&lt;/b&gt;&lt;/p&gt;&lt;hr&gt;&lt;p style=&quot;margin:0px;margin-left:8px;&quot;&gt;&lt;br&gt;&lt;/p&gt;" style="align=left;overflow=fill;html=1;dropTarget=0;whiteSpace=wrap;" vertex="1" parent="1">
          <mxGeometry x="880" y="320" width="180" height="90" as="geometry" />
        </mxCell>
        <mxCell id="jm8aYf2_qS2qIBeLgn5X-12" value="" style="shape=component;jettyWidth=8;jettyHeight=4;" vertex="1" parent="jm8aYf2_qS2qIBeLgn5X-11">
          <mxGeometry x="1" width="20" height="20" relative="1" as="geometry">
            <mxPoint x="-24" y="4" as="offset" />
          </mxGeometry>
        </mxCell>
        <mxCell id="jm8aYf2_qS2qIBeLgn5X-37" style="edgeStyle=orthogonalEdgeStyle;rounded=0;orthogonalLoop=1;jettySize=auto;html=1;exitX=0.75;exitY=0;exitDx=0;exitDy=0;endArrow=halfCircle;endFill=0;fillColor=#a20025;strokeColor=#6F0000;" edge="1" parent="1" source="jm8aYf2_qS2qIBeLgn5X-13" target="jm8aYf2_qS2qIBeLgn5X-29">
          <mxGeometry relative="1" as="geometry">
            <Array as="points">
              <mxPoint x="1275" y="230" />
              <mxPoint x="875" y="230" />
            </Array>
          </mxGeometry>
        </mxCell>
        <mxCell id="jm8aYf2_qS2qIBeLgn5X-38" style="edgeStyle=orthogonalEdgeStyle;rounded=0;orthogonalLoop=1;jettySize=auto;html=1;exitX=0.5;exitY=0;exitDx=0;exitDy=0;endArrow=halfCircle;endFill=0;fillColor=#0050ef;strokeColor=#001DBC;" edge="1" parent="1" source="jm8aYf2_qS2qIBeLgn5X-13" target="jm8aYf2_qS2qIBeLgn5X-26">
          <mxGeometry relative="1" as="geometry">
            <Array as="points">
              <mxPoint x="1230" y="260" />
              <mxPoint x="830" y="260" />
            </Array>
          </mxGeometry>
        </mxCell>
        <mxCell id="jm8aYf2_qS2qIBeLgn5X-39" style="edgeStyle=orthogonalEdgeStyle;rounded=0;orthogonalLoop=1;jettySize=auto;html=1;exitX=0.25;exitY=0;exitDx=0;exitDy=0;endArrow=halfCircle;endFill=0;jumpStyle=none;fillColor=#60a917;strokeColor=#2D7600;" edge="1" parent="1" source="jm8aYf2_qS2qIBeLgn5X-13" target="jm8aYf2_qS2qIBeLgn5X-23">
          <mxGeometry relative="1" as="geometry">
            <Array as="points">
              <mxPoint x="1185" y="290" />
              <mxPoint x="785" y="290" />
            </Array>
          </mxGeometry>
        </mxCell>
        <mxCell id="jm8aYf2_qS2qIBeLgn5X-13" value="&lt;p style=&quot;margin:0px;margin-top:6px;text-align:center;&quot;&gt;&lt;b&gt;Asteroid&lt;/b&gt;&lt;/p&gt;&lt;hr&gt;&lt;p style=&quot;margin:0px;margin-left:8px;&quot;&gt;&lt;br&gt;&lt;/p&gt;" style="align=left;overflow=fill;html=1;dropTarget=0;whiteSpace=wrap;" vertex="1" parent="1">
          <mxGeometry x="1140" y="320" width="180" height="90" as="geometry" />
        </mxCell>
        <mxCell id="jm8aYf2_qS2qIBeLgn5X-14" value="" style="shape=component;jettyWidth=8;jettyHeight=4;" vertex="1" parent="jm8aYf2_qS2qIBeLgn5X-13">
          <mxGeometry x="1" width="20" height="20" relative="1" as="geometry">
            <mxPoint x="-24" y="4" as="offset" />
          </mxGeometry>
        </mxCell>
        <mxCell id="jm8aYf2_qS2qIBeLgn5X-70" style="edgeStyle=orthogonalEdgeStyle;rounded=0;orthogonalLoop=1;jettySize=auto;html=1;exitX=0;exitY=0.5;exitDx=0;exitDy=0;endArrow=halfCircle;endFill=0;fillColor=#e3c800;strokeColor=#B09500;" edge="1" parent="1" source="jm8aYf2_qS2qIBeLgn5X-15" target="jm8aYf2_qS2qIBeLgn5X-32">
          <mxGeometry relative="1" as="geometry" />
        </mxCell>
        <mxCell id="jm8aYf2_qS2qIBeLgn5X-15" value="&lt;p style=&quot;margin:0px;margin-top:6px;text-align:center;&quot;&gt;&lt;b&gt;Collision&lt;/b&gt;&lt;/p&gt;&lt;hr&gt;&lt;p style=&quot;margin:0px;margin-left:8px;&quot;&gt;&lt;br&gt;&lt;/p&gt;" style="align=left;overflow=fill;html=1;dropTarget=0;whiteSpace=wrap;" vertex="1" parent="1">
          <mxGeometry x="1140" y="70" width="180" height="90" as="geometry" />
        </mxCell>
        <mxCell id="jm8aYf2_qS2qIBeLgn5X-16" value="" style="shape=component;jettyWidth=8;jettyHeight=4;" vertex="1" parent="jm8aYf2_qS2qIBeLgn5X-15">
          <mxGeometry x="1" width="20" height="20" relative="1" as="geometry">
            <mxPoint x="-24" y="4" as="offset" />
          </mxGeometry>
        </mxCell>
        <mxCell id="jm8aYf2_qS2qIBeLgn5X-23" value="" style="ellipse;whiteSpace=wrap;html=1;align=center;aspect=fixed;resizable=0;points=[];outlineConnect=0;sketch=0;fillColor=#60a917;fontColor=#ffffff;strokeColor=#2D7600;" vertex="1" parent="1">
          <mxGeometry x="780" y="190" width="10" height="10" as="geometry" />
        </mxCell>
        <mxCell id="jm8aYf2_qS2qIBeLgn5X-25" value="" style="rounded=0;orthogonalLoop=1;jettySize=auto;html=1;endArrow=halfCircle;endFill=0;endSize=6;strokeWidth=1;sketch=0;exitX=0.5;exitY=0;exitDx=0;exitDy=0;edgeStyle=orthogonalEdgeStyle;fillColor=#0050ef;strokeColor=#001DBC;" edge="1" target="jm8aYf2_qS2qIBeLgn5X-26" parent="1" source="jm8aYf2_qS2qIBeLgn5X-7">
          <mxGeometry relative="1" as="geometry">
            <mxPoint x="820" y="160" as="sourcePoint" />
          </mxGeometry>
        </mxCell>
        <mxCell id="jm8aYf2_qS2qIBeLgn5X-26" value="" style="ellipse;whiteSpace=wrap;html=1;align=center;aspect=fixed;resizable=0;points=[];outlineConnect=0;sketch=0;fillColor=#0050ef;fontColor=#ffffff;strokeColor=#001DBC;" vertex="1" parent="1">
          <mxGeometry x="825" y="190" width="10" height="10" as="geometry" />
        </mxCell>
        <mxCell id="jm8aYf2_qS2qIBeLgn5X-29" value="" style="ellipse;whiteSpace=wrap;html=1;align=center;aspect=fixed;resizable=0;points=[];outlineConnect=0;sketch=0;fillColor=#a20025;fontColor=#ffffff;strokeColor=#6F0000;" vertex="1" parent="1">
          <mxGeometry x="870" y="190" width="10" height="10" as="geometry" />
        </mxCell>
        <mxCell id="jm8aYf2_qS2qIBeLgn5X-30" value="" style="rounded=0;orthogonalLoop=1;jettySize=auto;html=1;endArrow=none;endFill=0;sketch=0;sourcePerimeterSpacing=0;targetPerimeterSpacing=0;exitX=1;exitY=0.5;exitDx=0;exitDy=0;fillColor=#e3c800;strokeColor=#B09500;" edge="1" target="jm8aYf2_qS2qIBeLgn5X-32" parent="1" source="jm8aYf2_qS2qIBeLgn5X-1">
          <mxGeometry relative="1" as="geometry">
            <mxPoint x="950" y="80" as="sourcePoint" />
          </mxGeometry>
        </mxCell>
        <mxCell id="jm8aYf2_qS2qIBeLgn5X-32" value="" style="ellipse;whiteSpace=wrap;html=1;align=center;aspect=fixed;resizable=0;points=[];outlineConnect=0;sketch=0;fillColor=#e3c800;fontColor=#000000;strokeColor=#B09500;" vertex="1" parent="1">
          <mxGeometry x="965" y="110" width="10" height="10" as="geometry" />
        </mxCell>
        <mxCell id="jm8aYf2_qS2qIBeLgn5X-46" value="" style="rounded=0;orthogonalLoop=1;jettySize=auto;html=1;endArrow=none;endFill=0;sketch=0;sourcePerimeterSpacing=0;targetPerimeterSpacing=0;exitX=0;exitY=0.5;exitDx=0;exitDy=0;fillColor=#a0522d;strokeColor=#6D1F00;" edge="1" target="jm8aYf2_qS2qIBeLgn5X-48" parent="1" source="jm8aYf2_qS2qIBeLgn5X-1">
          <mxGeometry relative="1" as="geometry">
            <mxPoint x="590" y="205" as="sourcePoint" />
          </mxGeometry>
        </mxCell>
        <mxCell id="jm8aYf2_qS2qIBeLgn5X-48" value="" style="ellipse;whiteSpace=wrap;html=1;align=center;aspect=fixed;resizable=0;points=[];outlineConnect=0;sketch=0;fillColor=#a0522d;fontColor=#ffffff;strokeColor=#6D1F00;" vertex="1" parent="1">
          <mxGeometry x="690" y="110" width="10" height="10" as="geometry" />
        </mxCell>
        <mxCell id="jm8aYf2_qS2qIBeLgn5X-49" value="&lt;h1&gt;&lt;div style=&quot;background-color: rgb(255, 255, 255); color: rgb(8, 8, 8); font-family: &amp;quot;JetBrains Mono&amp;quot;, monospace;&quot;&gt;Core&lt;/div&gt;&lt;/h1&gt;&lt;div style=&quot;background-color: rgb(255, 255, 255); color: rgb(8, 8, 8); font-family: &amp;quot;JetBrains Mono&amp;quot;, monospace;&quot;&gt;The core of the game&lt;br&gt;Contains the main game &lt;span style=&quot;color:#0033b3;&quot;&gt;loop&lt;/span&gt;&lt;br&gt;and the main game logic&lt;/div&gt;" style="text;html=1;strokeColor=none;fillColor=none;spacing=5;spacingTop=-20;whiteSpace=wrap;overflow=hidden;rounded=0;" vertex="1" parent="1">
          <mxGeometry x="720" y="-50" width="190" height="120" as="geometry" />
        </mxCell>
        <mxCell id="jm8aYf2_qS2qIBeLgn5X-59" style="edgeStyle=orthogonalEdgeStyle;rounded=0;orthogonalLoop=1;jettySize=auto;html=1;exitX=0.5;exitY=1;exitDx=0;exitDy=0;" edge="1" parent="1" source="jm8aYf2_qS2qIBeLgn5X-50" target="jm8aYf2_qS2qIBeLgn5X-48">
          <mxGeometry relative="1" as="geometry" />
        </mxCell>
        <mxCell id="jm8aYf2_qS2qIBeLgn5X-50" value="&lt;div style=&quot;background-color: rgb(255, 255, 255);&quot;&gt;&lt;font face=&quot;JetBrains Mono, monospace&quot; color=&quot;#080808&quot;&gt;IBulletCreateService&lt;/font&gt;&lt;br&gt;&lt;/div&gt;" style="text;html=1;strokeColor=none;fillColor=none;align=center;verticalAlign=middle;whiteSpace=wrap;rounded=0;" vertex="1" parent="1">
          <mxGeometry x="520" y="40" width="130" height="30" as="geometry" />
        </mxCell>
        <mxCell id="jm8aYf2_qS2qIBeLgn5X-57" style="edgeStyle=orthogonalEdgeStyle;rounded=0;orthogonalLoop=1;jettySize=auto;html=1;" edge="1" parent="1" source="jm8aYf2_qS2qIBeLgn5X-52" target="jm8aYf2_qS2qIBeLgn5X-23">
          <mxGeometry relative="1" as="geometry" />
        </mxCell>
        <mxCell id="jm8aYf2_qS2qIBeLgn5X-52" value="&lt;div style=&quot;background-color: rgb(255, 255, 255); color: rgb(8, 8, 8); font-family: &amp;quot;JetBrains Mono&amp;quot;, monospace;&quot;&gt;IGamePluginService&lt;/div&gt;" style="text;html=1;strokeColor=none;fillColor=none;align=center;verticalAlign=middle;whiteSpace=wrap;rounded=0;" vertex="1" parent="1">
          <mxGeometry x="610" y="180" width="120" height="30" as="geometry" />
        </mxCell>
        <mxCell id="jm8aYf2_qS2qIBeLgn5X-58" style="edgeStyle=orthogonalEdgeStyle;rounded=0;orthogonalLoop=1;jettySize=auto;html=1;" edge="1" parent="1" source="jm8aYf2_qS2qIBeLgn5X-53" target="jm8aYf2_qS2qIBeLgn5X-26">
          <mxGeometry relative="1" as="geometry">
            <Array as="points">
              <mxPoint x="800" y="175" />
              <mxPoint x="800" y="195" />
            </Array>
          </mxGeometry>
        </mxCell>
        <mxCell id="jm8aYf2_qS2qIBeLgn5X-53" value="&lt;div style=&quot;background-color: rgb(255, 255, 255); color: rgb(8, 8, 8); font-family: &amp;quot;JetBrains Mono&amp;quot;, monospace;&quot;&gt;IEntityProcessingService&lt;/div&gt;" style="text;html=1;strokeColor=none;fillColor=none;align=center;verticalAlign=middle;whiteSpace=wrap;rounded=0;" vertex="1" parent="1">
          <mxGeometry x="570" y="160" width="160" height="30" as="geometry" />
        </mxCell>
        <mxCell id="jm8aYf2_qS2qIBeLgn5X-56" style="edgeStyle=orthogonalEdgeStyle;rounded=0;orthogonalLoop=1;jettySize=auto;html=1;exitX=0;exitY=0.5;exitDx=0;exitDy=0;" edge="1" parent="1" source="jm8aYf2_qS2qIBeLgn5X-54" target="jm8aYf2_qS2qIBeLgn5X-29">
          <mxGeometry relative="1" as="geometry" />
        </mxCell>
        <mxCell id="jm8aYf2_qS2qIBeLgn5X-54" value="&lt;div style=&quot;background-color: rgb(255, 255, 255); color: rgb(8, 8, 8); font-family: &amp;quot;JetBrains Mono&amp;quot;, monospace;&quot;&gt;IAsteroidSplitter&lt;/div&gt;" style="text;html=1;strokeColor=none;fillColor=none;align=center;verticalAlign=middle;whiteSpace=wrap;rounded=0;" vertex="1" parent="1">
          <mxGeometry x="920" y="180" width="120" height="30" as="geometry" />
        </mxCell>
        <mxCell id="jm8aYf2_qS2qIBeLgn5X-61" style="edgeStyle=orthogonalEdgeStyle;rounded=0;orthogonalLoop=1;jettySize=auto;html=1;" edge="1" parent="1" source="jm8aYf2_qS2qIBeLgn5X-60" target="jm8aYf2_qS2qIBeLgn5X-32">
          <mxGeometry relative="1" as="geometry" />
        </mxCell>
        <mxCell id="jm8aYf2_qS2qIBeLgn5X-60" value="&lt;div style=&quot;background-color: rgb(255, 255, 255); color: rgb(8, 8, 8); font-family: &amp;quot;JetBrains Mono&amp;quot;, monospace;&quot;&gt;IPostEntityProcessingService&lt;/div&gt;" style="text;html=1;strokeColor=none;fillColor=none;align=center;verticalAlign=middle;whiteSpace=wrap;rounded=0;" vertex="1" parent="1">
          <mxGeometry x="940" y="40" width="190" height="30" as="geometry" />
        </mxCell>
      </root>
    </mxGraphModel>
  </diagram>
</mxfile>
